# xmcd
#
# Track frame offsets:
#	150
#	24667
#	40328
#	55554
#	73821
#	88864
#	110821
#	130106
#	147493
#	163189
#
# Disc length: 2421 seconds
#
# Revision: 0
# Processed by: cddbd v1.5.2PL0 Copyright (c) Steve Scherf et al.
# Submitted via: dBpowerAMP V4.0
#
DISCID=9309730a
DTITLE=kensington prairie - Captured in still life
DYEAR=2008
DGENRE=Pop Roots
TTITLE0=Time on our side
TTITLE1=Snowflakes and great lakes
TTITLE2=a million skies
TTITLE3=bluebirds
TTITLE4=golden days
TTITLE5=cathedrals and Towers
TTITLE6=crooked things straight
TTITLE7=Letters that I send
TTITLE8=Photographs
TTITLE9=disappear from view
EXTD=
EXTT0=
EXTT1=
EXTT2=
EXTT3=
EXTT4=
EXTT5=
EXTT6=
EXTT7=
EXTT8=
EXTT9=
PLAYORDER=
